#!OML:ASF I:\Actors\actors\Patient Classification 2\Patient 1\Session 1\actor1.ASF
:FULLY-SPECIFIED
:DEGREES
70
root -0.712714 18.5841 6.01149 -1.04382 -1.43943 -6.14975
lowerback 8.49539 0.599016 3.26755
upperback -2.30448 1.27749 1.57249
thorax -7.16675 0.520223 -0.369933
lowerneck -12.438 -1.94996 -1.907
upperneck 26.1971 -3.28543 3.49529
head 10.5292 -1.28883 1.15605
rclavicle 2.82026e-015 5.36719e-015
rhumerus -45.9751 -2.15545 -89.8272
rradius 40.0922
rwrist 22.4274
rhand -1.68496 -33.6828
rfingers 7.12502
rthumb 23.9755 -62.2056
lclavicle 2.82026e-015 5.36719e-015
lhumerus -41.7521 3.78687 90.9567
lradius 36.5757
lwrist -13.4607
lhand -2.37016 -24.0749
lfingers 7.12502
lthumb 23.3183 4.53283
rfemur 10.5869 1.66238 20.2273
rtibia 2.54444e-014
rfoot -16.5506 -11.9761
rtoes -14.6566
lfemur -4.21424 -3.65921 -7.89036
ltibia 26.7539
lfoot -22.8095 8.18962
ltoes -57.1299
71
root -0.712501 18.583 6.01093 -1.0477 -1.45102 -6.15549
lowerback 8.51316 0.602528 3.27
upperback -2.30017 1.28343 1.57653
thorax -7.17227 0.523067 -0.368134
lowerneck -12.4232 -1.95299 -1.90812
upperneck 26.175 -3.28613 3.4857
head 10.518 -1.29077 1.1527
rclavicle -1.717e-014 2.18663e-015
rhumerus -45.969 -2.16533 -89.8211
rradius 40.0704
rwrist 22.4112
rhand -1.78301 -33.5426
rfingers 7.12502
rthumb 23.8815 -62.0778
lclavicle -1.717e-014 2.18663e-015
lhumerus -41.7514 3.80541 90.9647
lradius 36.558
lwrist -13.4847
lhand -2.44268 -24.0698
lfingers 7.12502
lthumb 23.2487 4.54679
rfemur 10.5933 1.67356 20.2356
rtibia 2.06736e-014
rfoot -16.5284 -11.9688
rtoes -14.7085
lfemur -4.20928 -3.58929 -7.87229
ltibia 26.7527
lfoot -22.8153 8.11686
ltoes -57.0725
72
root -0.712016 18.5822 6.01067 -1.05948 -1.45413 -6.13448
lowerback 8.52087 0.610476 3.25752
upperback -2.28096 1.29156 1.56533
thorax -7.1559 0.527704 -0.374139
lowerneck -12.4135 -1.95741 -1.91071
upperneck 26.1423 -3.29876 3.51549
head 10.5051 -1.29371 1.16205
rclavicle 1.98226e-014 -4.57205e-015
rhumerus -45.9577 -2.18969 -89.8256
rradius 40.0831
rwrist 22.3302
rhand -1.78471 -33.5836
rfingers 7.12502
rthumb 23.8799 -62.119
lclavicle 1.98226e-014 -4.57205e-015
lhumerus -41.7279 3.78506 90.9799
lradius 36.5431
lwrist -13.488
lhand -2.47728 -24.0472
lfingers 7.12502
lthumb 23.2155 4.57351
rfemur 10.6071 1.67758 20.2106
rtibia -9.54166e-015
rfoot -16.5624 -11.9274
rtoes -14.4809
lfemur -4.19239 -3.58033 -7.89412
ltibia 26.7502
lfoot -22.8325 8.07321
ltoes -57.0046
73
root -0.711787 18.5821 6.01066 -1.0709 -1.45824 -6.10935
lowerback 8.51604 0.624001 3.23297
upperback -2.2487 1.30491 1.55657
thorax -7.11851 0.535892 -0.37136
lowerneck -12.4419 -1.96291 -1.91502
upperneck 26.1526 -3.31343 3.54428
head 10.5156 -1.29697 1.17106
rclavicle -2.80162e-015 8.74653e-015
rhumerus -45.9175 -2.21286 -89.8191
rradius 40.1041
rwrist 22.3336
rhand -1.6763 -33.7629
rfingers 7.12502
rthumb 23.9838 -62.2847
lclavicle -2.80162e-015 8.74653e-015
lhumerus -41.6914 3.72843 91.0132
lradius 36.5622
lwrist -13.4873
lhand -2.43885 -23.9333
lfingers 7.12502
lthumb 23.2524 4.68282
rfemur 10.6176 1.68274 20.1813
rtibia 1.11319e-014
rfoot -16.6064 -11.9113
rtoes -14.4702
lfemur -4.17372 -3.62609 -7.9337
ltibia 26.7473
lfoot -22.8474 8.12525
ltoes -57.039
74
root -0.711595 18.5823 6.01025 -1.06576 -1.46805 -6.09793
lowerback 8.52771 0.620201 3.20799
upperback -2.23089 1.29756 1.56544
thorax -7.10712 0.533882 -0.34708
lowerneck -12.5184 -1.95152 -1.92956
upperneck 26.2116 -3.29506 3.54375
head 10.552 -1.28855 1.17548
rclavicle -1.28713e-014 -9.14409e-015
rhumerus -45.9047 -2.15335 -89.8262
rradius 40.1278
rwrist 22.3494
rhand -1.70535 -33.7928
rfingers 7.12502
rthumb 23.956 -62.3182
lclavicle -1.28713e-014 -9.14409e-015
lhumerus -41.6804 3.7458 91.029
lradius 36.5895
lwrist -13.4977
lhand -2.40459 -23.8128
lfingers 7.12502
lthumb 23.2853 4.79911
rfemur 10.6108 1.69275 20.17
rtibia 2.54444e-014
rfoot -16.5973 -11.9264
rtoes -14.6743
lfemur -4.17619 -3.61501 -7.94917
ltibia 26.743
lfoot -22.8425 8.14952
ltoes -57.0932
75
root -0.711283 18.5821 6.00943 -1.06629 -1.46453 -6.09121
lowerback 8.56865 0.606535 3.18965
upperback -2.22139 1.27895 1.56739
thorax -7.12146 0.52546 -0.332582
lowerneck -12.5867 -1.93981 -1.91755
upperneck 26.2584 -3.27807 3.52768
head 10.5817 -1.28025 1.16963
rclavicle 2.10215e-014 1.66979e-014
rhumerus -45.9216 -2.09773 -89.8429
rradius 40.1558
rwrist 22.3328
rhand -1.74925 -33.7133
rfingers 7.12502
rthumb 23.9139 -62.2442
lclavicle 2.10215e-014 1.66979e-014
lhumerus -41.6695 3.77916 91.0183
lradius 36.5883
lwrist -13.447
lhand -2.41327 -23.825
lfingers 7.12502
lthumb 23.277 4.78796
rfemur 10.6096 1.68967 20.161
rtibia -1.43125e-014
rfoot -16.6096 -11.9163
rtoes -14.4715
lfemur -4.18129 -3.60561 -7.95724
ltibia 26.7414
lfoot -22.8289 8.15099
ltoes -57.111
76
root -0.710405 18.5816 6.00864 -1.07627 -1.45075 -6.08777
lowerback 8.61155 0.601347 3.18516
upperback -2.20521 1.27307 1.56921
thorax -7.12916 0.522813 -0.327829
lowerneck -12.6079 -1.94214 -1.9522
upperneck 26.2418 -3.27893 3.55258
head 10.5808 -1.28102 1.18409
rclavicle -8.41729e-015 -5.1684e-015
rhumerus -45.93 -2.10308 -89.8211
rradius 40.1712
rwrist 22.3565
rhand -1.62263 -33.6563
rfingers 7.12502
rthumb 24.0353 -62.1713
lclavicle -8.41729e-015 -5.1684e-015
lhumerus -41.6343 3.79904 91.024
lradius 36.5689
lwrist -13.4216
lhand -2.4406 -23.9068
lfingers 7.12502
lthumb 23.2507 4.70953
rfemur 10.6181 1.67655 20.1529
rtibia -1.74931e-014
rfoot -16.6397 -11.8908
rtoes -14.0982
lfemur -4.1786 -3.6497 -7.9713
ltibia 26.7435
lfoot -22.8262 8.19046
ltoes -57.1211
77
root -0.709304 18.5811 6.00801 -1.06912 -1.45165 -6.08054
lowerback 8.62824 0.594047 3.17458
upperback -2.19231 1.26314 1.57918
thorax -7.12572 0.518781 -0.310157
lowerneck -12.607 -1.93376 -2.04035
upperneck 26.2099 -3.25838 3.60369
head 10.5706 -1.2746 1.21991
rclavicle -1.25607e-014 1.31198e-014
rhumerus -45.9305 -2.06086 -89.8099
rradius 40.172
rwrist 22.3634
rhand -1.54354 -33.6385
rfingers 7.12502
rthumb 24.1111 -62.1434
lclavicle -1.25607e-014 1.31198e-014
lhumerus -41.6174 3.86766 91.0196
lradius 36.5742
lwrist -13.4726
lhand -2.44031 -23.9738
lfingers 7.12502
lthumb 23.251 4.64248
rfemur 10.6105 1.67815 20.1414
rtibia 1.90833e-014
rfoot -16.6495 -11.8889
rtoes -14.1514
lfemur -4.18661 -3.66337 -7.98407
ltibia 26.745
lfoot -22.8454 8.15834
ltoes -57.0526
78
root -0.708704 18.5813 6.00747 -1.05758 -1.44917 -6.06632
lowerback 8.64367 0.585447 3.15028
upperback -2.19166 1.24944 1.57718
thorax -7.13466 0.512956 -0.296839
lowerneck -12.5918 -1.92226 -2.03947
upperneck 26.2058 -3.23799 3.58833
head 10.565 -1.26722 1.21697
rclavicle 8.84592e-015 1.09332e-014
rhumerus -45.943 -2.02468 -89.8256
rradius 40.1618
rwrist 22.3945
rhand -1.51131 -33.5863
rfingers 7.12502
rthumb 24.142 -62.0871
lclavicle 8.84592e-015 1.09332e-014
lhumerus -41.6398 3.90338 90.9941
lradius 36.5949
lwrist -13.4805
lhand -2.4288 -24.0631
lfingers 7.12502
lthumb 23.2621 4.55174
rfemur 10.6003 1.67655 20.1223
rtibia 2.06736e-014
rfoot -16.6444 -11.8977
rtoes -14.4502
lfemur -4.19854 -3.65273 -8.00042
ltibia 26.7389
lfoot -22.8487 8.11834
ltoes -57.0184
79
root -0.708067 18.5822 6.00718 -1.06419 -1.43819 -6.05802
lowerback 8.70688 0.588797 3.14304
upperback -2.2032 1.25583 1.56869
thorax -7.1831 0.515408 -0.303452
lowerneck -12.5334 -1.92148 -1.9847
upperneck 26.1815 -3.23817 3.54631
head 10.5429 -1.26773 1.19282
rclavicle 1.55922e-014 -1.07344e-014
rhumerus -45.984 -2.04736 -89.8262
rradius 40.1638
rwrist 22.4394
rhand -1.46706 -33.5846
rfingers 7.12502
rthumb 24.1845 -62.0799
lclavicle 1.55922e-014 -1.07344e-014
lhumerus -41.6869 3.8631 90.9955
lradius 36.6171
lwrist -13.4533
lhand -2.42433 -24.1345
lfingers 7.12502
lthumb 23.2663 4.47982
rfemur 10.6076 1.66627 20.1098
rtibia -1.59028e-015
rfoot -16.6339 -11.9056
rtoes -14.5807
lfemur -4.19075 -3.66207 -8.01809
ltibia 26.7251
lfoot -22.8197 8.19777
ltoes -57.1549
80
root -0.707587 18.5818 6.00625 -1.06999 -1.42115 -6.02533
lowerback 8.78759 0.591324 3.10941
upperback -2.21267 1.25841 1.55487
thorax -7.23988 0.516922 -0.300553
lowerneck -12.4858 -1.92153 -1.96112
upperneck 26.1613 -3.24211 3.54108
head 10.5257 -1.26855 1.18664
rclavicle -3.49116e-015 -1.66979e-014
rhumerus -46.032 -2.03696 -89.8546
rradius 40.1807
rwrist 22.3459
rhand -1.56143 -33.7255
rfingers 7.12502
rthumb 24.094 -62.2328
lclavicle -3.49116e-015 -1.66979e-014
lhumerus -41.7013 3.85984 90.9835
lradius 36.6269
lwrist -13.4744
lhand -2.37392 -24.1545
lfingers 7.12502
lthumb 23.3147 4.45371
rfemur 10.6096 1.65048 20.0722
rtibia -1.59028e-015
rfoot -16.621 -11.9356
rtoes -14.7729
lfemur -4.18391 -3.65913 -8.05988
ltibia 26.7073
lfoot -22.793 8.25755
ltoes -57.258
81
root -0.707694 18.5815 6.00365 -1.05946 -1.41353 -5.98132
lowerback 8.84358 0.587766 3.04774
upperback -2.19601 1.24713 1.53551
thorax -7.25523 0.51353 -0.285328
lowerneck -12.5335 -1.92633 -1.91607
upperneck 26.189 -3.25148 3.50851
head 10.5443 -1.27144 1.1659
rclavicle 5.50385e-015 1.35174e-014
rhumerus -46.0285 -1.9977 -89.9176
rradius 40.1919
rwrist 22.1756
rhand -1.73983 -33.8822
rfingers 7.12502
rthumb 23.9229 -62.412
lclavicle 5.50385e-015 1.35174e-014
lhumerus -41.6517 3.88669 90.94
lradius 36.6305
lwrist -13.48
lhand -2.31572 -24.1735
lfingers 7.12502
lthumb 23.3705 4.42765
rfemur 10.5866 1.64433 20.023
rtibia 1.59028e-014
rfoot -16.6113 -11.9432
rtoes -14.8205
lfemur -4.20393 -3.636 -8.10149
ltibia 26.6933
lfoot -22.765 8.23673
ltoes -57.2457
82
root -0.707764 18.5819 6.00021 -1.05666 -1.44076 -5.95865
lowerback 8.91056 0.600077 3.00848
upperback -2.15949 1.26026 1.52816
thorax -7.25494 0.521722 -0.27376
lowerneck -12.5967 -1.94519 -1.88979
upperneck 26.1936 -3.27486 3.47443
head 10.5581 -1.28278 1.14574
rclavicle 1.61326e-014 5.1684e-015
rhumerus -45.984 -2.01456 -89.931
rradius 40.2244
rwrist 22.1771
rhand -1.76637 -33.9406
rfingers 7.12502
rthumb 23.8975 -62.4737
lclavicle 1.61326e-014 5.1684e-015
lhumerus -41.5802 3.8919 90.926
lradius 36.6172
lwrist -13.4733
lhand -2.29301 -24.1982
lfingers 7.12502
lthumb 23.3923 4.40018
rfemur 10.566 1.67226 19.9987
rtibia -2.38542e-014
rfoot -16.5972 -11.9288
rtoes -14.6655
lfemur -4.21667 -3.58577 -8.11672
ltibia 26.6905
lfoot -22.7246 8.19556
ltoes -57.2224
83
root -0.706989 18.5814 5.99727 -1.07349 -1.4754 -5.94634
lowerback 9.0042 0.616601 3.00816
upperback -2.12975 1.28553 1.52941
thorax -7.27645 0.533995 -0.277185
lowerneck -12.592 -1.96644 -1.98033
upperneck 26.1523 -3.30089 3.54468
head 10.5457 -1.29578 1.18278
rclavicle -8.00108e-015 -1.41137e-014
rhumerus -45.9758 -2.01328 -89.9211
rradius 40.3077
rwrist 22.2214
rhand -1.67901 -33.8692
rfingers 7.12502
rthumb 23.9812 -62.3914
lclavicle -8.00108e-015 -1.41137e-014
lhumerus -41.5191 3.94483 90.926
lradius 36.5586
lwrist -13.5199
lhand -2.29694 -24.2068
lfingers 7.12502
lthumb 23.3886 4.39202
rfemur 10.5703 1.70722 19.9868
rtibia 1.27222e-014
rfoot -16.577 -11.9469
rtoes -14.8607
lfemur -4.20918 -3.50488 -8.1269
ltibia 26.7056
lfoot -22.6982 8.15281
ltoes -57.2178
84
root -0.705963 18.5806 5.99486 -1.08979 -1.49138 -5.94673
lowerback 9.08836 0.612786 3.04142
upperback -2.09472 1.28642 1.5225
thorax -7.28662 0.532861 -0.304283
lowerneck -12.6049 -1.97142 -2.04525
upperneck 26.1215 -3.30144 3.58319
head 10.5387 -1.29803 1.20728
rclavicle 3.77691e-015 7.15625e-015
rhumerus -45.974 -1.95421 -89.9591
rradius 40.4046
rwrist 22.1217
rhand -1.58361 -33.7752
rfingers 7.12502
rthumb 24.0727 -62.2852
lclavicle 3.77691e-015 7.15625e-015
lhumerus -41.4817 3.97978 90.9164
lradius 36.551
lwrist -13.4992
lhand -2.32498 -24.1801
lfingers 7.12502
lthumb 23.3617 4.42219
rfemur 10.5753 1.72327 19.9875
rtibia 7.95139e-015
rfoot -16.579 -11.9654
rtoes -15.0561
lfemur -4.2157 -3.50535 -8.13286
ltibia 26.7453
lfoot -22.7232 8.15802
ltoes -57.177
